<?xml version="1.0" encoding="UTF-8" standalone="no"?>
<svg width="125px" height="112px" viewBox="0 0 125 112" version="1.1" xmlns="http://www.w3.org/2000/svg" xmlns:xlink="http://www.w3.org/1999/xlink" xmlns:sketch="http://www.bohemiancoding.com/sketch/ns">
    <!-- Generator: Sketch 3.2 (9961) - http://www.bohemiancoding.com/sketch -->
    <title>Hotel Default</title>
    <desc>Created with Sketch.</desc>
    <defs></defs>
    <g id="Page-1" stroke="none" stroke-width="1" fill="none" fill-rule="evenodd" sketch:type="MSPage">
        <g id="Hotel-Default" sketch:type="MSLayerGroup">
            <rect id="Rectangle-1" fill-opacity="0.05" fill="#000000" sketch:type="MSShapeGroup" x="0" y="0" width="125" height="112"></rect>
            <g id="Group" transform="translate(13.000000, 17.000000)" sketch:type="MSShapeGroup">
                <path d="M62.7488225,14.3378427 L24.3025567,14.3378427 L24.3025567,38.4173535 L2.28747086,38.4173535 L2.28747086,76.5848829 L97.4761269,76.5848829 L97.4761269,38.4173535 L62.7488225,38.4173535 L62.7488225,14.3378427 Z" id="Fill-48" fill-opacity="0.4" fill="#000000"></path>
                <path d="M64.2750172,12.8168224 L22.7763619,12.8168224 L22.2227066,10.3424968 L64.8286726,10.3424968 L64.2750172,12.8168224" id="Fill-49" fill-opacity="0.3" fill="#000000"></path>
                <path d="M23.8982425,8.86746767 L63.1531366,8.86746767 L55.9446894,0.139445262 L30.5530344,0.139445262 L23.8982425,8.86746767" id="Fill-50" fill-opacity="0.2" fill="#000000"></path>
                <path d="M99.4976975,34.4558571 L98.9440421,36.9298148 L64.2458774,36.9298148 L64.2458774,34.4558571 L99.4976975,34.4558571" id="Fill-51" fill-opacity="0.3" fill="#000000"></path>
                <path d="M97.825804,32.9811959 L64.2458774,32.9811959 L64.2458774,24.2546452 L90.6137143,24.2546452 L97.825804,32.9811959" id="Fill-52" fill-opacity="0.2" fill="#000000"></path>
                <path d="M32.2140005,61.695146 C30.0722284,61.695146 28.3347704,63.2695162 28.3347704,65.2132874 L28.3347704,76.5848829 L36.096873,76.5848829 L36.096873,65.2132874 C36.096873,63.2695162 34.359415,61.695146 32.2140005,61.695146" id="Fill-53" fill="#F4F3F2"></path>
                <path d="M40.4532665,64.1930191 L40.4532665,70.9257601 L46.197441,70.9257601 L46.197441,64.1930191 C46.197441,62.7551508 44.9116492,61.5899182 43.3235325,61.5899182 C41.7390583,61.5899182 40.4532665,62.7551508 40.4532665,64.1930191 Z" id="Fill-54" fill="#F4F3F2"></path>
                <path d="M54.6661826,61.7072877 C53.0817084,61.7072877 51.7959166,62.8725203 51.7959166,64.3100206 L51.7959166,71.0431296 L57.540091,71.0431296 L57.540091,64.3100206 C57.540091,62.8725203 56.2542993,61.7072877 54.6661826,61.7072877" id="Fill-55" fill="#F4F3F2"></path>
                <path d="M51.7959166,54.1327241 L57.540091,54.1327241 L57.540091,45.9529166 L51.7959166,45.9529166 L51.7959166,54.1327241 Z" id="Fill-56" fill="#F4F3F2"></path>
                <path d="M40.4532665,54.1327241 L46.197441,54.1327241 L46.197441,45.9529166 L40.4532665,45.9529166 L40.4532665,54.1327241 Z" id="Fill-57" fill="#F4F3F2"></path>
                <path d="M29.3437345,54.1327241 L35.0879089,54.1327241 L35.0879089,45.9529166 L29.3437345,45.9529166 L29.3437345,54.1327241 Z" id="Fill-58" fill="#F4F3F2"></path>
                <path d="M51.7959166,38.6888855 L57.540091,38.6888855 L57.540091,30.50871 L51.7959166,30.50871 L51.7959166,38.6888855 Z" id="Fill-59" fill="#F4F3F2"></path>
                <path d="M40.4532665,38.6888855 L46.197441,38.6888855 L46.197441,30.50871 L40.4532665,30.50871 L40.4532665,38.6888855 Z" id="Fill-60" fill="#F4F3F2"></path>
                <path d="M29.3437345,38.6888855 L35.0879089,38.6888855 L35.0879089,30.50871 L29.3437345,30.50871 L29.3437345,38.6888855 Z" id="Fill-61" fill="#F4F3F2"></path>
                <path d="M66.2237384,45.9529166 L92.8246933,45.9529166 L92.8246933,54.1327241 L66.2237384,54.1327241 L66.2237384,45.9529166 Z" id="Fill-62" fill="#FFFFFF"></path>
                <path d="M66.2237384,62.863322 L92.8246933,62.863322 L92.8246933,71.0431296 L66.2237384,71.0431296 L66.2237384,62.863322 Z" id="Fill-63" fill="#FFFFFF"></path>
                <path d="M0.265900275,34.4558571 L0.819555643,36.9298148 L22.8091442,36.9298148 L22.8091442,34.4558571 L0.265900275,34.4558571" id="Fill-64" fill-opacity="0.3" fill="#000000"></path>
                <path d="M22.8091442,32.9811959 L22.8091442,24.2546452 L9.14988344,24.2546452 L1.93779379,32.9811959 L22.8091442,32.9811959 Z" id="Fill-65" fill-opacity="0.2" fill="#000000"></path>
                <path d="M6.93890444,45.9529166 L20.8276407,45.9529166 L20.8276407,54.1327241 L6.93890444,54.1327241 L6.93890444,45.9529166 Z" id="Fill-66" fill="#FFFFFF"></path>
                <path d="M6.93890444,62.863322 L20.8276407,62.863322 L20.8276407,71.0431296 L6.93890444,71.0431296 L6.93890444,62.863322 Z" id="Fill-67" fill="#FFFFFF"></path>
                <g transform="translate(32.722513, 17.363896)" fill="#FFFFFF">
                    <path d="M5.88402138,0.221659691 L5.02075611,0.221659691 C4.8896272,0.221659691 4.78399559,0.327991302 4.78399559,0.459342115 L4.78399559,2.93182802 L1.85909256,2.93182802 L1.85909256,0.459342115 C1.85909256,0.327991302 1.75346094,0.221659691 1.62233204,0.221659691 L0.759066763,0.221659691 C0.627937861,0.221659691 0.522306245,0.327991302 0.522306245,0.459342115 L0.522306245,7.05962852 C0.522306245,7.19097933 0.627937861,7.29731094 0.759066763,7.29731094 L1.62233204,7.29731094 C1.75346094,7.29731094 1.85909256,7.19097933 1.85909256,7.05962852 L1.85909256,4.18646744 L4.78399559,4.18646744 L4.78399559,7.05962852 C4.78399559,7.19097933 4.8896272,7.29731094 5.02075611,7.29731094 L5.88402138,7.29731094 C6.01515028,7.29731094 6.1207819,7.19097933 6.1207819,7.05962852 L6.1207819,0.459342115 C6.1207819,0.327991302 6.01515028,0.221659691 5.88402138,0.221659691" id="Fill-68"></path>
                    <path d="M9.14038914,3.0789998 C9.46821139,3.0789998 9.73775414,3.20225617 9.95630231,3.45539163 C10.1821354,3.7136781 10.2986944,4.11288155 10.2986944,4.6419641 C10.2986944,5.20747167 10.1821354,5.62580745 9.95994478,5.88593357 C9.73775414,6.13980489 9.47185386,6.26342919 9.14038914,6.26342919 C8.80892441,6.26342919 8.53938166,6.14090868 8.32083349,5.88777322 C8.09500038,5.62911882 7.98208383,5.21924541 7.98208383,4.66919088 C7.98208383,4.11876843 8.09500038,3.70963088 8.32083349,3.45318405 C8.53938166,3.20115238 8.80892441,3.0789998 9.14038914,3.0789998 L9.14038914,3.0789998 Z M9.14038914,1.93253163 C8.50295697,1.93253163 7.9493016,2.13047768 7.49763538,2.52195461 C6.96219236,2.99327224 6.68900715,3.71588568 6.68900715,4.66919088 C6.68900715,5.53603267 6.91484026,6.21596629 7.36650648,6.68875563 C7.8181727,7.16448841 8.4155377,7.4054822 9.14038914,7.4054822 C9.59569783,7.4054822 10.0182243,7.29694301 10.4006836,7.083176 C10.7867854,6.8657297 11.0891103,6.55630103 11.2930886,6.16335238 C11.4934244,5.77813024 11.5917711,5.25309492 11.5917711,4.60149186 C11.5917711,3.78174505 11.3622955,3.12535891 10.9069869,2.65109785 C10.4516782,2.17426128 9.85431316,1.93253163 9.14038914,1.93253163 L9.14038914,1.93253163 Z" id="Fill-69"></path>
                    <path d="M13.5441348,6.10411574 C13.52228,6.09087028 13.5113526,6.07652103 13.5004252,6.05812456 C13.5004252,6.0511339 13.4785703,5.98196316 13.4785703,5.70454435 L13.4785703,3.14669882 L14.0504381,3.14669882 C14.1779245,3.14669882 14.2835561,3.03999928 14.2835561,2.90864846 L14.2835561,2.27801739 C14.2835561,2.1470345 14.1779245,2.04033496 14.0504381,2.04033496 L13.4785703,2.04033496 L13.4785703,0.607617684 C13.4785703,0.521890122 13.4312182,0.44278529 13.3583688,0.400841333 C13.2855195,0.358529446 13.1944577,0.360369093 13.1216083,0.404152698 L12.3239075,0.890555431 C12.2547006,0.933603176 12.2109909,1.01086836 12.2109909,1.09402042 L12.2109909,2.04033496 L11.8576714,2.04033496 C11.7265425,2.04033496 11.6209109,2.1470345 11.6209109,2.27801739 L11.6209109,2.90864846 C11.6209109,3.03999928 11.7265425,3.14669882 11.8576714,3.14669882 L12.2109909,3.14669882 L12.2109909,5.65965696 C12.2109909,6.35872292 12.2765554,6.59456569 12.32755,6.7108314 C12.4113268,6.9095133 12.560668,7.0706664 12.7646463,7.18950761 C12.9649821,7.30466953 13.2235975,7.36059481 13.5587047,7.36059481 C13.7517556,7.36059481 13.9739462,7.33447182 14.2143492,7.28369755 C14.3381931,7.25720663 14.4183275,7.13762956 14.3964727,7.01216562 L14.2835561,6.29654284 C14.2617013,6.16813546 14.1451423,6.07799275 14.0176558,6.09933265 C13.693476,6.14532384 13.5550622,6.11147433 13.5441348,6.10411574 Z" id="Fill-70"></path>
                    <path d="M15.7077617,3.97196457 C15.7587563,3.73170664 15.8643879,3.53633611 16.0210141,3.37959816 C16.2286348,3.17429353 16.4799652,3.07421672 16.7859327,3.07421672 C17.1246823,3.07421672 17.3905826,3.19931273 17.6018458,3.4575992 C17.7001925,3.57680835 17.7693994,3.74899933 17.8131091,3.97196457 L15.7077617,3.97196457 L15.7077617,3.97196457 Z M16.7786477,1.93253163 C16.0574388,1.93253163 15.4637162,2.18235573 15.0084075,2.6742774 C14.5603838,3.16178393 14.3309082,3.84650063 14.3309082,4.70966312 C14.3309082,5.54633469 14.5567413,6.21118321 15.0047651,6.68544427 C15.4527888,7.16338462 16.0647237,7.4054822 16.8223574,7.4054822 C17.4233648,7.4054822 17.9260256,7.25279148 18.3194123,6.95182519 C18.712799,6.65049097 18.9859843,6.22442867 19.131683,5.68541202 C19.1498954,5.61881679 19.1353255,5.54780641 19.0989008,5.49040941 C19.0624761,5.43374828 19.0005541,5.39585155 18.9313472,5.3877571 L18.1045066,5.28436892 C17.9915901,5.2703876 17.8896009,5.33514319 17.8531762,5.43963515 C17.7475446,5.73545043 17.6091308,5.9499533 17.4379347,6.0761531 C17.2703811,6.2023529 17.0700453,6.26342919 16.8259998,6.26342919 C16.4945351,6.26342919 16.2286348,6.15047485 16.0064442,5.91831137 C15.8243207,5.72698805 15.7077617,5.45692783 15.6567671,5.11364966 L18.9240623,5.11364966 C19.0515487,5.11364966 19.1571803,5.0117332 19.1608228,4.88295789 C19.1644653,4.78398487 19.1644653,4.70966312 19.1644653,4.65999265 C19.1644653,3.81191526 18.9422746,3.13934023 18.5015358,2.66066401 C18.0535121,2.17757265 17.4743594,1.93253163 16.7786477,1.93253163 L16.7786477,1.93253163 Z" id="Fill-71"></path>
                    <path d="M20.6943025,0.221659691 L19.8929592,0.221659691 C19.7618303,0.221659691 19.6561986,0.327991302 19.6561986,0.459342115 L19.6561986,7.05962852 C19.6561986,7.19097933 19.7618303,7.29731094 19.8929592,7.29731094 L20.6943025,7.29731094 C20.8254314,7.29731094 20.931063,7.19097933 20.931063,7.05962852 L20.931063,0.459342115 C20.931063,0.327991302 20.8254314,0.221659691 20.6943025,0.221659691" id="Fill-72"></path>
                </g>
            </g>
        </g>
    </g>
</svg>